<svg width="22" height="22" viewBox="0 0 22 22" fill="none" xmlns="http://www.w3.org/2000/svg">
<path d="M10.1033 3.64988C10.4701 2.90671 11.5299 2.90671 11.8967 3.64988L13.6 7.10068C13.7456 7.39552 14.0268 7.59998 14.3521 7.64754L18.1629 8.20454C18.9828 8.32438 19.3096 9.33222 18.716 9.91038L15.9601 12.5946C15.7242 12.8243 15.6166 13.1555 15.6722 13.48L16.3224 17.2709C16.4625 18.0878 15.605 18.7108 14.8714 18.325L11.4654 16.5339C11.174 16.3806 10.8259 16.3806 10.5345 16.5339L7.12861 18.325C6.39498 18.7108 5.53743 18.0878 5.67755 17.2709L6.32773 13.48C6.38339 13.1555 6.27573 12.8243 6.03986 12.5946L3.28399 9.91038C2.6904 9.33222 3.01718 8.32438 3.8371 8.20454L7.64785 7.64754C7.9732 7.59998 8.25439 7.39552 8.39993 7.10068L10.1033 3.64988Z" fill="#D9D9D9"/>
</svg>
