<svg width="29" height="28" viewBox="0 0 29 28" fill="none" xmlns="http://www.w3.org/2000/svg">
<path d="M25.25 13.4167C25.254 14.9565 24.8943 16.4756 24.2 17.85C23.3768 19.4971 22.1114 20.8824 20.5454 21.8509C18.9793 22.8193 17.1746 23.3327 15.3333 23.3334C13.7935 23.3374 12.2745 22.9776 10.9 22.2834L4.25 24.5L6.46667 17.85C5.77242 16.4756 5.41265 14.9565 5.41667 13.4167C5.41738 11.5754 5.93071 9.77069 6.89917 8.20468C7.86763 6.63866 9.25296 5.3732 10.9 4.55003C12.2745 3.85579 13.7935 3.49602 15.3333 3.50003H15.9167C18.3484 3.63419 20.6452 4.66059 22.3673 6.3827C24.0894 8.10482 25.1158 10.4016 25.25 12.8334V13.4167Z" stroke="white" stroke-width="1.5" stroke-linecap="round" stroke-linejoin="round"/>
<line x1="11.3" y1="10.45" x2="19.6" y2="10.45" stroke="white" stroke-width="1.5" stroke-linecap="round"/>
<line x1="11.3" y1="16.05" x2="19.6" y2="16.05" stroke="white" stroke-width="1.5" stroke-linecap="round"/>
</svg>
